<svg width="380" height="107" viewBox="0 0 380 107" fill="none" xmlns="http://www.w3.org/2000/svg">
<path fill-rule="evenodd" clip-rule="evenodd" d="M91.9692 6.21536C90.0105 9.63395 87.9559 13.2769 87.4033 14.3108L86.3985 16.1909L92.177 16.1801L97.9554 16.1697L98.8356 14.9272C99.7438 13.6462 105.003 6.31752 106.357 4.44671C106.777 3.86653 107.687 2.62832 108.379 1.6958L109.638 0H102.584H95.53L91.9692 6.21536ZM92.8212 23.6101C91.7702 25.9127 88.465 33.0035 86.3065 37.5859C85.5076 39.2821 84.3008 41.8842 83.6249 43.3684C82.5086 45.8194 80.9123 49.2457 77.3381 56.8608C76.6416 58.3449 75.6024 60.6001 75.0288 61.8722C74.4552 63.1444 73.255 65.7465 72.3617 67.6547C71.4681 69.5629 70.2185 72.2517 69.5846 73.6299C68.9507 75.008 67.5369 78.0438 66.4435 80.3761C65.3498 82.7083 64.0273 85.5706 63.5045 86.7368C62.4031 89.1935 60.6147 93.0211 57.3289 99.9547C56.0438 102.666 54.9925 105.051 54.9925 105.255C54.9925 106.022 72.5511 105.722 72.8101 104.951C72.9346 104.581 73.591 103.063 74.2689 101.578C74.9464 100.094 75.9927 97.794 76.5938 96.4667L77.6868 94.0531L94.1223 94.1537L110.558 94.254L111.703 96.6051C112.334 97.8981 113.521 100.457 114.343 102.291L115.836 105.626H124.345C133.955 105.626 133.64 105.744 132.179 102.689C131.583 101.442 130.619 99.3811 130.037 98.1089C129.455 96.8368 128.294 94.3214 127.458 92.5192C124.06 85.1967 123.366 83.6998 121.832 80.3761C120.951 78.4679 119.576 75.5188 118.776 73.8226C117.976 72.1264 116.636 69.2641 115.797 67.4619C114.958 65.6597 113.582 62.7107 112.74 60.9085C111.896 59.1063 110.57 56.244 109.792 54.5478C108.106 50.8744 105.872 46.0642 103.884 41.8264C103.088 40.1302 101.835 37.4414 101.099 35.8512C93.5525 19.5443 94.2235 20.537 92.8212 23.6101ZM264.46 21.833C253.255 23.0758 241.538 30.1088 234.707 39.6931C232.608 42.6383 229.135 49.0953 229.135 50.0529C229.135 50.3409 228.886 51.123 228.582 51.7911C228.041 52.9792 227.656 54.6924 226.793 59.752C225.415 67.8251 228.725 81.3325 233.689 87.8933C234.25 88.6353 234.981 89.6762 235.312 90.2062C236.235 91.6831 242.452 97.8483 243.289 98.1166C243.696 98.2469 244.029 98.506 244.029 98.6922C244.029 98.8784 244.445 99.2569 244.952 99.5333C245.46 99.8101 247.222 100.812 248.867 101.761C258.905 107.55 274.172 108.706 283.746 104.404C290.597 101.324 298.34 95.3445 297.322 93.9182C297 93.4668 296.094 92.1434 295.31 90.9772C294.525 89.8111 293.707 88.6616 293.493 88.4225C293.278 88.1832 292.886 87.6627 292.621 87.2661C292.356 86.869 291.325 85.3937 290.328 83.9882L288.517 81.432L285.352 83.997C275.952 91.616 267.207 92.6831 257.221 87.4295C254.538 86.0182 254.566 86.0386 251.423 83.1015C234.409 67.2013 245.691 38.8049 269.043 38.7548C275.167 38.7417 274.497 38.5917 279.927 41.1903C282.134 42.2466 285.511 44.5438 287.27 46.1856L288.311 47.1574L289.179 46.0726C289.656 45.4759 290.492 44.3356 291.036 43.5384C291.579 42.7412 292.267 41.8341 292.563 41.523C292.86 41.2119 293.36 40.5647 293.675 40.0851C293.99 39.6059 294.592 38.7605 295.012 38.207C296.524 36.214 297.494 34.7194 297.494 34.3821C297.494 33.7568 293.731 30.5155 290.811 28.6262C289.761 27.9466 288.723 27.2558 288.505 27.0912C283.853 23.5808 272.025 20.9942 264.46 21.833ZM332.437 21.8322C326.729 22.4675 317.467 25.9632 313.534 28.967C313.008 29.3679 312.172 29.9967 311.675 30.3644C302.848 36.892 297.099 46.9065 295.171 59.1117L294.348 64.3221L295.186 70.032C295.648 73.1727 296.159 75.9174 296.322 76.1314C296.486 76.3457 296.81 77.3106 297.043 78.2759C298.413 83.9512 304.636 92.8612 310.512 97.5592C329.603 112.825 358.414 109.048 371.838 89.5185C372.525 88.5185 373.226 87.527 373.394 87.315C375.313 84.9045 377.938 78.3048 379.067 73.0516C385.089 45.0372 361.064 18.6469 332.437 21.8322ZM0 64.3321V105.626L16.5168 105.594C42.2877 105.543 47.9817 103.445 53.6047 91.9286C59.6924 79.4605 52.2665 59.752 41.4811 59.752C40.0662 59.752 38.7063 58.9232 39.5701 58.5874C47.9657 55.3223 47.2599 36.3416 38.4787 29.2365C31.9461 23.9505 29.9858 23.4806 13.4617 23.2366L0 23.0381V64.3321ZM137.481 31.2252V39.3207L152.661 39.3265C161.011 39.3299 168.05 39.466 168.305 39.6295C168.808 39.9525 168.543 41.6337 167.988 41.6337C167.803 41.6337 167.651 41.8241 167.651 42.0565C167.651 42.4609 166.725 44.4401 160.004 58.4028C156.734 65.1975 152.603 73.8288 148.936 81.5326C143.595 92.7513 138.945 102.408 138.42 103.372C137.102 105.793 135.032 105.626 166.314 105.626H194.765V97.5307V89.4352H179.321C161.475 89.4352 162.965 89.9576 165.547 84.6042C166.668 82.2789 169.248 76.9066 171.278 72.6661C175.011 64.8706 180.952 52.4981 183.679 46.8379C184.496 45.1417 186.897 40.1109 189.014 35.6585C191.13 31.206 193.033 27.3028 193.242 26.9848C193.698 26.2901 194.185 25.1756 194.549 23.9972L194.817 23.1298H166.149H137.481V31.2252ZM203.93 64.3702V105.626H212.143H220.355L220.258 64.4743L220.161 23.3226L212.046 23.2185L203.93 23.1144V64.3702ZM345.422 39.4591C349.755 41.4224 351.338 42.2967 353.315 43.819C365.414 53.1342 366.826 70.9842 356.355 82.2527C354.748 83.9816 350.633 87.1223 349.974 87.1223C349.727 87.1223 349.32 87.3713 349.07 87.6758C348.82 87.98 348.109 88.3412 347.492 88.4781C346.874 88.6153 345.898 88.9626 345.322 89.2502C342.449 90.6862 332.052 90.7741 329.479 89.3844C329.052 89.1538 328.226 88.8269 327.643 88.6585C319.007 86.1581 311.268 74.6834 311.268 64.378C311.268 56.5967 317.028 45.2639 322.045 43.1756C322.3 43.0696 323.281 42.4756 324.227 41.8557C325.89 40.7644 328.546 39.5975 330.91 38.9186C333.094 38.2914 343.717 38.6869 345.422 39.4591ZM26.1604 40.1325C35.1578 44.4019 30.5392 55.5031 19.7629 55.5092L16.0395 55.5115V47.4161V39.3207H20.2445C23.7239 39.3207 24.7447 39.4606 26.1604 40.1325ZM94.9304 59.4621C95.0801 59.9386 95.8458 61.7165 96.6317 63.4134C97.4177 65.11 98.5293 67.539 99.1022 68.8112C99.675 70.0833 100.701 72.3385 101.382 73.8226C103.524 78.4887 103.875 79.3244 103.875 79.7597C103.875 80.0565 100.947 80.1833 94.0952 80.1833H84.3153L84.549 79.2435C84.6774 78.7269 85.5366 76.6884 86.4585 74.7139C87.38 72.7398 88.5627 70.17 89.0871 69.0039C89.611 67.8378 90.633 65.5826 91.3582 63.9925C92.0834 62.4023 92.9182 60.5373 93.2134 59.8484C93.8382 58.3893 94.5432 58.2308 94.9304 59.4621ZM34.0846 70.7105C41.2295 73.2841 42.3316 82.8918 36.0002 87.4102C33.3136 89.3273 31.657 89.6253 23.6773 89.6268L16.2304 89.628L16.1285 79.8942L16.0265 70.1604L24.3391 70.1774C30.2783 70.1893 33.0608 70.3416 34.0846 70.7105Z" fill="black"/>
</svg>
